<svg width="18" height="18" viewBox="0 0 18 18" fill="none" xmlns="http://www.w3.org/2000/svg">
<path fill-rule="evenodd" clip-rule="evenodd" d="M17.5433 9.20223C17.5433 8.57119 17.4867 7.96443 17.3815 7.38193H9.00005V10.8243H13.7895C13.5832 11.9367 12.9562 12.8793 12.0137 13.5103V15.7432H14.8897C16.5725 14.1939 17.5433 11.9125 17.5433 9.20223Z" fill="#4285F4"/>
<path fill-rule="evenodd" clip-rule="evenodd" d="M9.00005 17.8991C11.4029 17.8991 13.4173 17.1022 14.8898 15.7431L12.0137 13.5102C11.2168 14.0441 10.1974 14.3596 9.00005 14.3596C6.6822 14.3596 4.72031 12.7942 4.02051 10.6907H1.04734V12.9964C2.51168 15.9049 5.52125 17.8991 9.00005 17.8991Z" fill="#34A853"/>
<path fill-rule="evenodd" clip-rule="evenodd" d="M4.02043 10.6909C3.84245 10.1569 3.74132 9.58657 3.74132 9.00003C3.74132 8.41349 3.84245 7.84313 4.02043 7.30917V5.00345H1.04727C0.444543 6.20485 0.100708 7.56401 0.100708 9.00003C0.100708 10.436 0.444543 11.7952 1.04727 12.9966L4.02043 10.6909Z" fill="#FBBC05"/>
<path fill-rule="evenodd" clip-rule="evenodd" d="M9.00005 3.64022C10.3066 3.64022 11.4797 4.08923 12.402 4.97107L14.9545 2.41859C13.4133 0.982575 11.3988 0.100739 9.00005 0.100739C5.52125 0.100739 2.51168 2.09498 1.04734 5.00343L4.02051 7.30915C4.72031 5.20568 6.6822 3.64022 9.00005 3.64022Z" fill="#EA4335"/>
</svg>
